<svg xmlns="http://www.w3.org/2000/svg" viewBox="0 0 60 40">
  <rect width="60" height="40" fill="#fff"/>
  <rect y="0" width="60" height="3.08" fill="#B22234"/>
  <rect y="6.15" width="60" height="3.08" fill="#B22234"/>
  <rect y="12.31" width="60" height="3.08" fill="#B22234"/>
  <rect y="18.46" width="60" height="3.08" fill="#B22234"/>
  <rect y="24.62" width="60" height="3.08" fill="#B22234"/>
  <rect y="30.77" width="60" height="3.08" fill="#B22234"/>
  <rect y="36.92" width="60" height="3.08" fill="#B22234"/>
  <rect width="24" height="21.54" fill="#3C3B6E"/>
  <g fill="#fff">
    <circle cx="4" cy="2.2" r="1.1"/><circle cx="8" cy="2.2" r="1.1"/><circle cx="12" cy="2.2" r="1.1"/><circle cx="16" cy="2.2" r="1.1"/><circle cx="20" cy="2.2" r="1.1"/>
    <circle cx="6" cy="4.6" r="1.1"/><circle cx="10" cy="4.6" r="1.1"/><circle cx="14" cy="4.6" r="1.1"/><circle cx="18" cy="4.6" r="1.1"/>
    <circle cx="4" cy="7" r="1.1"/><circle cx="8" cy="7" r="1.1"/><circle cx="12" cy="7" r="1.1"/><circle cx="16" cy="7" r="1.1"/><circle cx="20" cy="7" r="1.1"/>
    <circle cx="6" cy="9.4" r="1.1"/><circle cx="10" cy="9.4" r="1.1"/><circle cx="14" cy="9.4" r="1.1"/><circle cx="18" cy="9.4" r="1.1"/>
    <circle cx="4" cy="11.8" r="1.1"/><circle cx="8" cy="11.8" r="1.1"/><circle cx="12" cy="11.8" r="1.1"/><circle cx="16" cy="11.8" r="1.1"/><circle cx="20" cy="11.8" r="1.1"/>
    <circle cx="6" cy="14.2" r="1.1"/><circle cx="10" cy="14.2" r="1.1"/><circle cx="14" cy="14.2" r="1.1"/><circle cx="18" cy="14.2" r="1.1"/>
    <circle cx="4" cy="16.6" r="1.1"/><circle cx="8" cy="16.6" r="1.1"/><circle cx="12" cy="16.6" r="1.1"/><circle cx="16" cy="16.6" r="1.1"/><circle cx="20" cy="16.6" r="1.1"/>
    <circle cx="6" cy="19" r="1.1"/><circle cx="10" cy="19" r="1.1"/><circle cx="14" cy="19" r="1.1"/><circle cx="18" cy="19" r="1.1"/>
  </g>
</svg>
